<svg width="463" height="442" viewBox="0 0 463 442" fill="none" xmlns="http://www.w3.org/2000/svg">
<path d="M203.939 441.142C310.861 441.142 397.539 417.769 397.539 388.937C397.539 360.104 310.861 336.731 203.939 336.731C97.0161 336.731 10.3384 360.104 10.3384 388.937C10.3384 417.769 97.0161 441.142 203.939 441.142Z" fill="#F4B11B"/>
<path opacity="0.5" d="M203.949 441.207C310.872 441.207 397.549 417.834 397.549 389.002C397.549 360.169 310.872 336.796 203.949 336.796C97.0269 336.796 10.3491 360.169 10.3491 389.002C10.3491 417.834 97.0269 441.207 203.949 441.207Z" fill="white"/>
<path d="M322.055 18.8274C298.499 32.3166 281.895 55.0039 261.75 73.2164C236.877 95.6984 206.065 111.522 173.311 118.623C146.365 124.471 118.134 124.547 92.1163 133.691C41.4195 151.525 6.62479 204.422 5.69636 258.206C4.77872 312.001 35.3847 364.098 80.3058 393.628C95.5602 403.647 112.358 411.321 129.923 416.261C162.969 425.567 197.99 425.156 232.137 421.6C291.104 415.45 352.92 381.933 390.09 334.656C406.672 313.568 420.663 290.47 431.805 266.075C450.114 226.018 460.77 182.405 462.594 138.371C464.159 100.53 462.562 58.6032 432.614 31.0412C402.732 3.53319 357.195 -1.29827 322.055 18.8274Z" fill="#F4B11B"/>
<path opacity="0.7" d="M322.055 18.8274C298.499 32.3166 281.895 55.0039 261.75 73.2164C236.877 95.6984 206.065 111.522 173.311 118.623C146.365 124.471 118.134 124.547 92.1163 133.691C41.4195 151.525 6.62479 204.422 5.69636 258.206C4.77872 312.001 35.3847 364.098 80.3058 393.628C95.5602 403.647 112.358 411.321 129.923 416.261C162.969 425.567 197.99 425.156 232.137 421.6C291.104 415.45 352.92 381.933 390.09 334.656C406.672 313.568 420.663 290.47 431.805 266.075C450.114 226.018 460.77 182.405 462.594 138.371C464.159 100.53 462.562 58.6032 432.614 31.0412C402.732 3.53319 357.195 -1.29827 322.055 18.8274Z" fill="white"/>
<path d="M423.233 285.477H43.5568L1 323.35" stroke="#263238" stroke-miterlimit="10" stroke-linecap="round" stroke-linejoin="round"/>
<path d="M43.7944 258.941V185.28" stroke="#263238" stroke-miterlimit="10" stroke-linecap="round" stroke-linejoin="round"/>
<path d="M43.7944 281.196V266.95" stroke="#263238" stroke-miterlimit="10" stroke-linecap="round" stroke-linejoin="round"/>
<path d="M400.378 106.269C400.378 106.269 400.378 101.816 394.149 95.5792C387.92 89.3427 383.926 85.7866 383.926 85.7866C383.926 85.7866 380.816 96.0224 386.592 102.259C390.846 106.658 395.455 110.69 400.378 114.311V106.269Z" fill="#F4B11B"/>
<path d="M391.342 134.069C391.342 134.069 391.342 129.616 385.113 123.379C378.884 117.142 374.889 113.586 374.889 113.586C374.889 113.586 371.78 123.822 377.556 130.059C381.81 134.447 386.419 138.479 391.342 142.11V134.069Z" fill="#F4B11B"/>
<path d="M399.979 113.846C399.979 113.846 400.443 109.414 407.298 103.88C414.154 98.3355 418.494 95.2227 418.494 95.2227C418.494 95.2227 420.512 105.761 414.1 111.317C409.414 115.229 404.405 118.742 399.126 121.812L399.979 113.846Z" fill="#F4B11B"/>
<path d="M389.064 146.683C389.064 146.683 389.993 142.327 397.388 137.538C404.772 132.75 409.425 130.102 409.425 130.102C409.425 130.102 410.332 140.77 403.412 145.656C398.338 149.05 392.983 152.011 387.423 154.508L389.064 146.683Z" fill="#F4B11B"/>
<path d="M391.126 182.47C391.126 182.47 391.126 178.016 397.344 171.791C403.563 165.565 407.579 161.998 407.579 161.998C407.579 161.998 410.688 172.245 404.912 178.47C400.669 182.87 396.06 186.901 391.137 190.522V182.47H391.126Z" fill="#F4B11B"/>
<path d="M391.018 191.214C391.018 191.214 391.655 186.804 386.365 179.757C381.086 172.699 377.631 168.603 377.631 168.603C377.631 168.603 373.119 178.298 377.944 185.291C381.529 190.231 385.523 194.868 389.884 199.148L391.018 191.214Z" fill="#F4B11B"/>
<path d="M384.875 217.112C384.875 217.112 384.875 212.659 391.094 206.433C397.312 200.207 401.328 196.64 401.328 196.64C401.328 196.64 404.437 206.887 398.662 213.112C394.419 217.512 389.809 221.543 384.886 225.164V217.112H384.875Z" fill="#F4B11B"/>
<path d="M389.032 240.588C389.032 240.588 387.909 236.275 392.368 228.655C396.815 221.035 399.784 216.604 399.784 216.604C399.784 216.604 405.376 225.726 401.371 233.216C398.37 238.534 394.926 243.593 391.072 248.338L389.032 240.588Z" fill="#F4B11B"/>
<path d="M400.94 105.156C400.627 109.793 400.054 114.408 399.234 118.969C396.773 131.691 390.619 139.916 388.158 151.406C385.696 162.895 392.757 177.714 390.878 192.489C388.989 207.254 383.246 215.469 384.865 225.326C386.484 235.184 395.121 261.87 395.121 261.87" stroke="#263238" stroke-width="1.1775" stroke-linecap="round" stroke-linejoin="round"/>
<path d="M399.925 116.808L406.629 111.652" stroke="#263238" stroke-width="1.1775" stroke-linecap="round" stroke-linejoin="round"/>
<path d="M400.227 110.874L397.431 105.869" stroke="#263238" stroke-width="1.1775" stroke-linecap="round" stroke-linejoin="round"/>
<path d="M388.535 150.855C388.535 150.855 394.149 146.639 399.925 142.424" stroke="#263238" stroke-width="1.1775" stroke-linecap="round" stroke-linejoin="round"/>
<path d="M391.342 142.056C391.342 142.056 386.667 132.869 381.356 126.773" stroke="#263238" stroke-width="1.1775" stroke-linecap="round" stroke-linejoin="round"/>
<path d="M391.342 188.804C394.559 182.892 398.608 177.466 403.38 172.721" stroke="#263238" stroke-width="1.1775" stroke-linecap="round" stroke-linejoin="round"/>
<path d="M390.252 195.062C388.546 191.041 386.506 187.161 384.163 183.475C380.881 178.633 380.406 178.006 380.406 178.006" stroke="#263238" stroke-width="1.1775" stroke-linecap="round" stroke-linejoin="round"/>
<path d="M384.875 225.294C386.301 221.759 387.985 218.333 389.928 215.047C391.871 212.01 394.063 209.135 396.481 206.454" stroke="#263238" stroke-width="1.1775" stroke-linecap="round" stroke-linejoin="round"/>
<path d="M391.061 248.337C391.061 248.337 390.403 243.009 392.745 238.48C395.088 233.951 397.733 228.017 398.834 225.683" stroke="#263238" stroke-width="1.1775" stroke-linecap="round" stroke-linejoin="round"/>
<path d="M359.613 165.738C359.613 165.738 359.128 162.949 362.356 158.366C365.594 153.784 367.699 151.103 367.699 151.103C367.699 151.103 370.765 157.177 367.807 161.717C365.616 164.927 363.165 167.954 360.466 170.753L359.613 165.738Z" fill="#F4B11B"/>
<path d="M368.293 182.189C368.293 182.189 367.807 179.4 371.035 174.806C374.263 170.223 376.39 167.554 376.39 167.554C376.39 167.554 379.456 173.639 376.498 178.168C374.306 181.378 371.856 184.404 369.157 187.204L368.293 182.189Z" fill="#F4B11B"/>
<path d="M360.682 170.451C360.682 170.451 359.926 167.727 355.014 165.003C350.092 162.28 347.047 160.788 347.047 160.788C347.047 160.788 346.928 167.565 351.56 170.408C354.928 172.343 358.447 173.996 362.086 175.358L360.682 170.451Z" fill="#F4B11B"/>
<path d="M371.089 189.852C371.089 189.852 370.031 187.225 364.871 185.021C359.722 182.826 356.504 181.681 356.504 181.681C356.504 181.681 357.098 188.458 361.989 190.771C365.54 192.349 369.211 193.624 372.979 194.586L371.089 189.852Z" fill="#F4B11B"/>
<path d="M373.68 212.518C373.68 212.518 373.194 209.729 368.617 206.498C364.039 203.266 361.135 201.472 361.135 201.472C361.135 201.472 360.293 208.249 364.601 211.513C367.742 213.794 371.067 215.815 374.544 217.533L373.68 212.518Z" fill="#F4B11B"/>
<path d="M374.684 217.987C374.684 217.987 373.81 215.296 376.358 210.302C378.895 205.309 380.633 202.358 380.633 202.358C380.633 202.358 384.519 207.946 382.252 212.853C380.525 216.344 378.517 219.684 376.239 222.84L374.684 217.987Z" fill="#F4B11B"/>
<path d="M382.5 240.501C382.5 240.501 382.824 237.68 387.207 234.2C391.59 230.709 394.387 228.752 394.387 228.752C394.387 228.752 395.617 235.443 391.504 238.967C388.503 241.431 385.297 243.636 381.917 245.56L382.5 240.501Z" fill="#F4B11B"/>
<path d="M381.345 233.562C381.345 233.562 380.859 230.773 376.282 227.542C371.705 224.31 368.811 222.516 368.811 222.516C368.811 222.516 367.969 229.293 372.266 232.557C375.408 234.837 378.733 236.859 382.22 238.577L381.345 233.562Z" fill="#F4B11B"/>
<path d="M381.281 248.738C381.281 248.738 381.518 245.917 377.912 241.626C374.307 237.335 371.953 234.849 371.953 234.849C371.953 234.849 369.427 241.172 372.763 245.441C375.224 248.457 377.934 251.256 380.86 253.818L381.281 248.738Z" fill="#F4B11B"/>
<path d="M359.127 165.079C359.829 167.954 360.682 170.786 361.697 173.563C364.612 181.27 369.362 185.756 372.147 192.695C374.932 199.634 372.147 209.697 374.9 218.743C377.653 227.79 382.176 232.298 382.22 238.685C382.252 245.073 379.747 262.713 379.747 262.713" stroke="#263238" stroke-width="1.1775" stroke-linecap="round" stroke-linejoin="round"/>
<path d="M361.038 172.288L356.277 169.792" stroke="#263238" stroke-width="1.1775" stroke-linecap="round" stroke-linejoin="round"/>
<path d="M360.196 168.613L361.416 165.165" stroke="#263238" stroke-width="1.1775" stroke-linecap="round" stroke-linejoin="round"/>
<path d="M371.877 192.403C371.877 192.403 367.894 190.371 363.824 188.35" stroke="#263238" stroke-width="1.1775" stroke-linecap="round" stroke-linejoin="round"/>
<path d="M369.157 187.236C370.323 183.54 371.866 179.962 373.756 176.568" stroke="#263238" stroke-width="1.1775" stroke-linecap="round" stroke-linejoin="round"/>
<path d="M374.231 216.517C371.575 213.155 368.455 210.194 364.946 207.74" stroke="#263238" stroke-width="1.1775" stroke-linecap="round" stroke-linejoin="round"/>
<path d="M375.591 220.311C376.228 217.609 377.081 214.961 378.15 212.399C379.651 209.005 379.91 208.562 379.91 208.562" stroke="#263238" stroke-width="1.1775" stroke-linecap="round" stroke-linejoin="round"/>
<path d="M382.025 243.506C382.025 243.506 385.178 239.637 387.143 238.177C388.33 237.302 389.442 236.329 390.468 235.281" stroke="#263238" stroke-width="1.1775" stroke-linecap="round" stroke-linejoin="round"/>
<path d="M382.23 238.696C380.956 236.632 379.521 234.665 377.955 232.827C376.401 231.13 374.716 229.574 372.914 228.147" stroke="#263238" stroke-width="1.1775" stroke-linecap="round" stroke-linejoin="round"/>
<path d="M380.86 253.818C380.698 251.656 379.974 249.581 378.744 247.797C376.779 245.203 374.468 241.777 373.54 240.426" stroke="#263238" stroke-width="1.1775" stroke-linecap="round" stroke-linejoin="round"/>
<path d="M401.587 293.172H373.238C372.072 293.172 371.122 292.221 371.122 291.053L367.052 259.644H407.763L403.693 291.053C403.703 292.221 402.753 293.172 401.587 293.172Z" fill="#263238"/>
<path d="M407.406 264.961H367.051C365.303 264.961 363.877 263.545 363.867 261.794C363.867 260.033 365.292 258.606 367.051 258.606C367.051 258.606 367.051 258.606 367.062 258.606H407.417C409.176 258.606 410.602 260.022 410.602 261.784C410.602 261.784 410.602 261.784 410.602 261.794C410.58 263.545 409.155 264.961 407.406 264.961Z" fill="#263238"/>
<path d="M213.212 13.477H17.1289V5.91098C17.1289 3.38176 19.1801 1.32812 21.7063 1.32812H208.645C211.172 1.32812 213.223 3.38176 213.223 5.91098V13.477H213.212Z" fill="#F4B11B" stroke="#263238" stroke-miterlimit="10" stroke-linecap="round" stroke-linejoin="round"/>
<path d="M223.9 15.7358H25.7114V155.362H223.9V15.7358Z" fill="white" stroke="#263238" stroke-miterlimit="10" stroke-linecap="round" stroke-linejoin="round"/>
<path d="M226.933 7.40245C226.933 9.07778 225.573 10.4397 223.9 10.4397C222.226 10.4397 220.866 9.07778 220.866 7.40245C220.866 5.72712 222.226 4.36523 223.9 4.36523C225.573 4.36523 226.933 5.72712 226.933 7.40245Z" fill="white" stroke="#263238" stroke-miterlimit="10" stroke-linecap="round" stroke-linejoin="round"/>
<path d="M216.246 7.40245C216.246 9.07778 214.886 10.4397 213.212 10.4397C211.539 10.4397 210.179 9.07778 210.179 7.40245C210.179 5.72712 211.539 4.36523 213.212 4.36523C214.886 4.36523 216.246 5.72712 216.246 7.40245Z" fill="white" stroke="#263238" stroke-miterlimit="10" stroke-linecap="round" stroke-linejoin="round"/>
<path d="M205.569 7.40245C205.569 9.07778 204.208 10.4397 202.535 10.4397C200.862 10.4397 199.501 9.07778 199.501 7.40245C199.501 5.72712 200.862 4.36523 202.535 4.36523C204.208 4.36523 205.569 5.72712 205.569 7.40245Z" fill="white" stroke="#263238" stroke-miterlimit="10" stroke-linecap="round" stroke-linejoin="round"/>
<path d="M217.897 21.7241H210.049" stroke="#263238" stroke-width="2" stroke-miterlimit="10" stroke-linecap="round" stroke-linejoin="round"/>
<path d="M217.897 24.9019H210.049" stroke="#263238" stroke-width="2" stroke-miterlimit="10" stroke-linecap="round" stroke-linejoin="round"/>
<path d="M217.897 28.0903H210.049" stroke="#263238" stroke-width="2" stroke-miterlimit="10" stroke-linecap="round" stroke-linejoin="round"/>
<path d="M39.4326 104.107H98.8308" stroke="#263238" stroke-width="2" stroke-miterlimit="10" stroke-linecap="round" stroke-linejoin="round"/>
<path d="M39.4326 108.798H98.8308" stroke="#263238" stroke-width="2" stroke-miterlimit="10" stroke-linecap="round" stroke-linejoin="round"/>
<path d="M39.4326 113.576H86.2646" stroke="#263238" stroke-width="2" stroke-miterlimit="10" stroke-linecap="round" stroke-linejoin="round"/>
<path d="M165.376 17.3032V17.8436" stroke="#263238" stroke-linecap="round" stroke-linejoin="round"/>
<path d="M165.376 21.1294V150.865" stroke="#263238" stroke-linecap="round" stroke-linejoin="round" stroke-dasharray="1.01 1.01"/>
<path d="M165.376 152.508V153.049" stroke="#263238" stroke-linecap="round" stroke-linejoin="round"/>
<path d="M28.0972 124.049H28.637" stroke="#263238" stroke-linecap="round" stroke-linejoin="round"/>
<path d="M31.854 124.049H218.718" stroke="#263238" stroke-linecap="round" stroke-linejoin="round" stroke-dasharray="0.99 0.99"/>
<path d="M220.326 124.049H220.866" stroke="#263238" stroke-linecap="round" stroke-linejoin="round"/>
<path d="M166.682 122.742H164.081V125.347H166.682V122.742Z" fill="white" stroke="#263238" stroke-miterlimit="10" stroke-linecap="round" stroke-linejoin="round"/>
<path d="M90.7667 146.109H50.2935V171.51H90.7667V146.109Z" fill="#263238" stroke="#263238" stroke-miterlimit="10" stroke-linecap="round" stroke-linejoin="round"/>
<path d="M90.7667 146.109H50.2935V149.968H90.7667V146.109Z" fill="#F4B11B" stroke="#263238" stroke-miterlimit="10" stroke-linecap="round" stroke-linejoin="round"/>
<path d="M54.4282 153.232H64.7705" stroke="white" stroke-miterlimit="10" stroke-linecap="round" stroke-linejoin="round"/>
<path d="M59.5996 156.118H77.499" stroke="white" stroke-miterlimit="10" stroke-linecap="round" stroke-linejoin="round"/>
<path d="M57.3105 158.81H62.5789" stroke="white" stroke-miterlimit="10" stroke-linecap="round" stroke-linejoin="round"/>
<path d="M59.5996 161.998H71.6585" stroke="white" stroke-miterlimit="10" stroke-linecap="round" stroke-linejoin="round"/>
<path d="M54.4282 164.884H64.7705" stroke="white" stroke-miterlimit="10" stroke-linecap="round" stroke-linejoin="round"/>
<path d="M154.99 99.0166H120.239" stroke="#263238" stroke-miterlimit="10" stroke-linecap="round" stroke-linejoin="round"/>
<path d="M155.66 115.1C155.66 115.1 155.66 98.9302 137.62 98.9302C119.581 98.9302 119.581 115.1 119.581 115.1" stroke="#263238" stroke-miterlimit="10" stroke-linecap="round" stroke-linejoin="round"/>
<path d="M155.66 116.624C156.501 116.624 157.182 115.941 157.182 115.1C157.182 114.258 156.501 113.576 155.66 113.576C154.819 113.576 154.138 114.258 154.138 115.1C154.138 115.941 154.819 116.624 155.66 116.624Z" fill="#F4B11B" stroke="#263238" stroke-miterlimit="10" stroke-linecap="round" stroke-linejoin="round"/>
<path d="M118.058 115.1C118.058 114.257 118.738 113.576 119.58 113.576C120.422 113.576 121.103 114.257 121.103 115.1C121.103 115.943 120.422 116.624 119.58 116.624C118.738 116.624 118.058 115.943 118.058 115.1Z" fill="#F4B11B" stroke="#263238" stroke-miterlimit="10" stroke-linecap="round" stroke-linejoin="round"/>
<path d="M154.327 100.272H157.004V97.5919H154.327V100.272Z" fill="#F4B11B" stroke="#263238" stroke-miterlimit="10" stroke-linecap="round" stroke-linejoin="round"/>
<path d="M136.278 100.272H138.955V97.5919H136.278V100.272Z" fill="#F4B11B" stroke="#263238" stroke-miterlimit="10" stroke-linecap="round" stroke-linejoin="round"/>
<path d="M118.229 100.272H120.907V97.5919H118.229V100.272Z" fill="#F4B11B" stroke="#263238" stroke-miterlimit="10" stroke-linecap="round" stroke-linejoin="round"/>
<path d="M61.0243 50.3991V45.0596L57.0299 44.7137C56.7923 43.8706 56.4577 43.0708 56.0366 42.3142L58.6168 39.2446L54.8491 35.4723L51.7831 38.0556C51.0382 37.6341 50.2285 37.3098 49.3865 37.0612L49.041 33.062H43.7079L43.3624 37.0612C42.5204 37.299 41.7215 37.6341 40.9658 38.0556L37.8998 35.4723L34.1321 39.2446L36.7122 42.3142C36.2912 43.06 35.9673 43.8706 35.719 44.7137L31.7246 45.0596V50.3991L35.719 50.7449C35.9565 51.588 36.2912 52.3878 36.7122 53.1444L34.1321 56.2141L37.8998 59.9863L40.9658 57.403C41.7107 57.8246 42.5204 58.1488 43.3624 58.3974L43.7079 62.3966H49.041L49.3865 58.3974C50.2285 58.1597 51.0274 57.8246 51.7831 57.403L54.8491 59.9863L58.6168 56.2141L56.0366 53.1444C56.4577 52.3987 56.7815 51.588 57.0299 50.7449L61.0243 50.3991ZM46.3744 53.9335C42.9522 53.9335 40.1777 51.1557 40.1777 47.7293C40.1777 44.303 42.9522 41.5252 46.3744 41.5252C49.7967 41.5252 52.5712 44.303 52.5712 47.7293C52.5712 51.1557 49.8075 53.9335 46.3744 53.9335Z" fill="#F4B11B" stroke="#263238" stroke-miterlimit="10" stroke-linecap="round" stroke-linejoin="round"/>
<path d="M79.1615 62.3752V58.7219L76.4302 58.4841C76.2682 57.9112 76.0415 57.36 75.75 56.8412L77.5205 54.7443L74.9403 52.161L72.846 53.9337C72.3386 53.6418 71.788 53.4148 71.205 53.2527L70.9567 50.5073H67.3077L67.0702 53.2419C66.4981 53.404 65.9475 53.631 65.4293 53.9229L63.3349 52.1502L60.7547 54.7335L62.5252 56.8304C62.2337 57.3384 62.007 57.8896 61.8451 58.4733L59.1138 58.7111V62.3644L61.8451 62.6022C62.007 63.175 62.2337 63.7263 62.5252 64.2451L60.7547 66.342L63.3349 68.9252L65.4293 67.1526C65.9367 67.4445 66.4873 67.6714 67.0702 67.8336L67.3077 70.5681H70.9567L71.1942 67.8336C71.7664 67.6714 72.317 67.4445 72.8352 67.1526L74.9296 68.9252L77.5097 66.342L75.7392 64.2451C76.0307 63.7371 76.2574 63.1859 76.4194 62.6022L79.1615 62.3752ZM69.1322 64.7963C66.7895 64.7963 64.8895 62.894 64.8895 60.5485C64.8895 58.2031 66.7895 56.3008 69.1322 56.3008C71.4749 56.3008 73.375 58.2031 73.375 60.5485C73.375 62.894 71.4749 64.7963 69.1322 64.7963Z" fill="#F4B11B" stroke="#263238" stroke-miterlimit="10" stroke-linecap="round" stroke-linejoin="round"/>
<path d="M172.836 132.923H202.049" stroke="#263238" stroke-width="2" stroke-miterlimit="10" stroke-linecap="round" stroke-linejoin="round"/>
<path d="M172.836 137.614H202.049" stroke="#263238" stroke-width="2" stroke-miterlimit="10" stroke-linecap="round" stroke-linejoin="round"/>
<path d="M172.836 142.402H189.494" stroke="#263238" stroke-width="2" stroke-miterlimit="10" stroke-linecap="round" stroke-linejoin="round"/>
<path d="M134.338 144.337H118.954C116.86 144.337 115.165 142.64 115.165 140.543C115.165 138.446 116.86 136.75 118.954 136.75H134.338C136.433 136.75 138.128 138.446 138.128 140.543C138.128 142.64 136.433 144.337 134.338 144.337Z" fill="#F4B11B" stroke="#263238" stroke-miterlimit="10" stroke-linecap="round" stroke-linejoin="round"/>
<path d="M163.001 144.337H147.617C145.523 144.337 143.828 142.64 143.828 140.543C143.828 138.446 145.523 136.75 147.617 136.75H163.001C165.095 136.75 166.79 138.446 166.79 140.543C166.79 142.64 165.095 144.337 163.001 144.337Z" fill="#F4B11B" stroke="#263238" stroke-miterlimit="10" stroke-linecap="round" stroke-linejoin="round"/>
<path d="M207.598 63.3154H174.974V95.9792H207.598V63.3154Z" fill="white" stroke="#263238" stroke-miterlimit="10" stroke-linecap="round" stroke-linejoin="round"/>
<path d="M174.974 63.3154L207.588 95.9683" stroke="#263238" stroke-miterlimit="10" stroke-linecap="round" stroke-linejoin="round"/>
<path d="M207.588 63.3154L174.974 95.9683" stroke="#263238" stroke-miterlimit="10" stroke-linecap="round" stroke-linejoin="round"/>
<path d="M243.008 43.9141H202.535V69.3143H243.008V43.9141Z" fill="#263238" stroke="#263238" stroke-miterlimit="10" stroke-linecap="round" stroke-linejoin="round"/>
<path d="M243.008 43.9141H202.535V47.7727H243.008V43.9141Z" fill="#F4B11B" stroke="#263238" stroke-miterlimit="10" stroke-linecap="round" stroke-linejoin="round"/>
<path d="M206.659 51.0259H217.012" stroke="white" stroke-miterlimit="10" stroke-linecap="round" stroke-linejoin="round"/>
<path d="M211.841 53.9224H229.741" stroke="white" stroke-miterlimit="10" stroke-linecap="round" stroke-linejoin="round"/>
<path d="M209.552 56.6138H214.821" stroke="white" stroke-miterlimit="10" stroke-linecap="round" stroke-linejoin="round"/>
<path d="M211.841 59.7915H223.9" stroke="white" stroke-miterlimit="10" stroke-linecap="round" stroke-linejoin="round"/>
<path d="M206.659 62.6777H217.012" stroke="white" stroke-miterlimit="10" stroke-linecap="round" stroke-linejoin="round"/>
<path d="M187.766 26.2422V33.8623L184.409 37.2238H176.798V26.2422H187.766Z" fill="white" stroke="#263238" stroke-miterlimit="10" stroke-linecap="round" stroke-linejoin="round"/>
<path d="M187.766 33.8623L184.409 37.2238V33.8623H187.766Z" fill="white" stroke="#263238" stroke-miterlimit="10" stroke-linecap="round" stroke-linejoin="round"/>
<path d="M71.1077 85.1816V92.8017L67.7502 96.1632H60.1392V85.1816H71.1077Z" fill="white" stroke="#263238" stroke-miterlimit="10" stroke-linecap="round" stroke-linejoin="round"/>
<path d="M71.1075 92.8018L67.75 96.1632V92.8018H71.1075Z" fill="white" stroke="#263238" stroke-miterlimit="10" stroke-linecap="round" stroke-linejoin="round"/>
<path d="M29.6628 132.124V139.744L26.3053 143.105H18.6943V132.124H29.6628Z" fill="white" stroke="#263238" stroke-miterlimit="10" stroke-linecap="round" stroke-linejoin="round"/>
<path d="M29.6627 139.744L26.3052 143.105V139.744H29.6627Z" fill="white" stroke="#263238" stroke-miterlimit="10" stroke-linecap="round" stroke-linejoin="round"/>
<path d="M326.447 381.921C316.343 393.941 304.467 404.468 290.994 412.564C286.773 415.093 282.466 417.341 278.05 419.33C247.379 433.133 212.423 434.03 179.722 426.096C110.997 409.419 74.5178 348.674 69.8972 281.25C68.6449 263.016 65.8596 243.344 73.2331 226.007C80.5418 208.821 95.5155 197.915 112.378 190.414C124.621 184.967 137.846 181.292 149.861 178.308C171.734 172.872 194.415 175.358 214.722 185.01C228.854 191.722 238.926 203.341 250.812 213.199C252.075 214.236 253.339 215.274 254.612 216.301C266.617 225.975 279.259 234.87 292.419 242.901C312.402 255.104 332.86 266.615 345.621 287.108C365.981 319.772 348.795 355.332 326.447 381.921Z" fill="#F4B11B"/>
<path opacity="0.4" d="M326.447 381.921C316.343 393.941 304.467 404.468 290.994 412.564C286.773 415.093 282.466 417.341 278.05 419.33C247.379 433.133 212.423 434.03 179.722 426.096C110.997 409.419 74.5178 348.674 69.8972 281.25C68.6449 263.016 65.8596 243.344 73.2331 226.007C80.5418 208.821 95.5155 197.915 112.378 190.414C124.621 184.967 137.846 181.292 149.861 178.308C171.734 172.872 194.415 175.358 214.722 185.01C228.854 191.722 238.926 203.341 250.812 213.199C252.075 214.236 253.339 215.274 254.612 216.301C266.617 225.975 279.259 234.87 292.419 242.901C312.402 255.104 332.86 266.615 345.621 287.108C365.981 319.772 348.795 355.332 326.447 381.921Z" fill="white"/>
<path d="M254.614 216.301C253.34 215.274 252.077 214.236 250.813 213.199C238.927 203.341 228.855 191.722 214.723 185.01C194.406 175.358 171.724 172.872 149.852 178.308C121.275 185.41 85.8328 196.337 73.2233 226.007C65.8499 243.344 68.6352 263.016 69.8875 281.239C74.5188 348.674 110.976 409.419 179.713 426.096C217.12 435.176 257.464 432.69 290.995 412.564C304.468 404.479 316.344 393.941 326.438 381.921C348.785 355.332 365.982 319.772 345.632 287.108C332.861 266.615 312.414 255.104 292.42 242.901C279.26 234.87 266.629 225.975 254.614 216.301Z" stroke="#263238" stroke-miterlimit="10"/>
<path d="M150.445 336.547C144.777 338.298 139.066 340.492 133.852 343.227" stroke="#263238" stroke-miterlimit="10" stroke-linecap="round" stroke-linejoin="round"/>
<path d="M185.521 329.878C185.521 329.878 174.283 330.645 160.637 333.812" stroke="#263238" stroke-miterlimit="10" stroke-linecap="round" stroke-linejoin="round"/>
<path d="M178.191 328.138C178.191 328.138 145.933 309.352 106.993 324.409" stroke="#263238" stroke-miterlimit="10" stroke-linecap="round" stroke-linejoin="round"/>
<path opacity="0.1" d="M326.449 381.921C316.344 393.941 304.468 404.468 290.995 412.564C286.774 415.093 282.467 417.341 278.051 419.33C274.543 418.249 271.099 416.995 267.72 415.536C247.575 406.879 230.669 392.265 214.151 377.836C204.187 369.146 194.06 360.326 182.142 354.63C166.207 347.01 147.444 345.464 130.484 350.382C139.24 340.416 151.547 333.639 164.642 331.564C156.124 323.803 144.249 320.539 132.719 320.323C121.189 320.096 114.841 321.534 103.581 324.063C107.338 317.124 117.346 310.844 125.237 311.028C117.346 310.844 108.342 310.314 102.804 309.439C92.6127 307.796 88.0677 295.798 86.5455 285.606C82.3352 257.514 86.5995 227.574 101.919 203.687C105.125 198.683 108.623 194.294 112.401 190.414C124.644 184.967 137.869 181.292 149.884 178.308C171.756 172.872 194.438 175.358 214.745 185.01C228.877 191.722 238.949 203.341 250.835 213.199C252.098 214.236 253.361 215.274 254.635 216.301C266.64 225.974 279.282 234.87 292.442 242.901C312.425 255.104 332.883 266.615 345.643 287.108C365.983 319.772 348.796 355.332 326.449 381.921Z" fill="black"/>
<path d="M337.655 381.132C337.655 381.132 346.723 388.774 356.612 395.129C369.448 395.994 363.694 411.537 363.694 411.537L352.704 418.606C352.704 418.606 333.93 403.668 323.685 398.815C313.451 393.951 337.655 381.132 337.655 381.132Z" fill="white"/>
<path opacity="0.3" d="M246.484 217.576C246.484 217.576 244.724 200.142 241.917 195.246L199.296 186.523V183.216C199.296 183.216 200.278 177.466 190.778 173.866C181.278 170.267 161.478 174.947 156.383 178.817C151.276 182.686 153.144 189.344 153.144 189.344C153.144 189.344 135.968 198.056 128.249 201.374C120.53 204.693 109.81 211.102 109.81 211.102C109.81 211.102 106.323 251.17 107.003 260.476C107.683 269.782 106.452 278.537 107.241 283.693C108.039 288.849 108.666 291.778 114.074 296.166C119.483 300.554 124.373 307.029 138.537 300.608L136.562 299.041L229.772 267.664L246.484 217.576Z" fill="black"/>
<path d="M246.484 217.576C246.484 217.576 244.724 200.142 241.917 195.246L199.296 186.523V183.216C199.296 183.216 200.278 177.466 190.778 173.866C181.278 170.267 161.478 174.947 156.383 178.817C151.276 182.686 153.144 189.344 153.144 189.344C153.144 189.344 135.968 198.056 128.249 201.374C120.53 204.693 109.81 211.102 109.81 211.102C109.81 211.102 106.323 251.17 107.003 260.476C107.683 269.782 106.452 278.537 107.241 283.693C108.039 288.849 108.666 291.778 114.074 296.166C119.483 300.554 124.373 307.029 138.537 300.608L136.562 299.041L229.772 267.664L246.484 217.576Z" fill="#F4B11B"/>
<path opacity="0.05" d="M246.484 217.576C246.484 217.576 244.724 200.142 241.917 195.246L199.296 186.523V183.216C199.296 183.216 200.278 177.466 190.778 173.866C181.278 170.267 161.478 174.947 156.383 178.817C151.276 182.686 153.144 189.344 153.144 189.344C153.144 189.344 135.968 198.056 128.249 201.374C120.53 204.693 109.81 211.102 109.81 211.102C109.81 211.102 106.323 251.17 107.003 260.476C107.683 269.782 106.452 278.537 107.241 283.693C108.039 288.849 108.666 291.778 114.074 296.166C119.483 300.554 124.373 307.029 138.537 300.608L136.562 299.041L229.772 267.664L246.484 217.576Z" fill="black"/>
<path opacity="0.1" d="M242.479 197.343H224.644C221.179 197.343 218.221 199.85 217.659 203.277L208.872 256.282C208.872 256.282 196.77 257.287 188.198 263.556C179.626 269.825 158.542 225.164 125.226 225.143C125.226 225.143 134.813 247.084 136.94 264.594C136.94 264.594 116.115 262.324 112.66 270.485C109.205 278.645 114.236 293.94 123.035 288.027C131.833 282.115 140.092 272.203 146.03 278.418C151.967 284.633 178.201 288.027 178.201 288.027L218.653 267.685L234.339 260.303L242.479 197.343Z" fill="black"/>
<path opacity="0.4" d="M185.855 171.099C185.855 171.099 195.982 173.909 197.623 177.314C199.264 180.708 199.091 189.333 199.091 189.333C199.091 189.333 196.327 196.986 188.198 204.336L180.641 189.333L181.321 206.357C181.321 206.357 166.984 203.968 160.906 199.374C154.828 194.781 154.828 194.781 154.828 194.781C154.828 194.781 152.216 186.166 152.583 183.205C152.95 180.254 163.929 174.32 163.929 174.32L185.855 171.099Z" fill="white"/>
<path d="M354.528 433.447C354.247 432.82 358.684 424.983 355.219 416.996C351.743 409.008 346.204 412.089 346.204 412.089C346.204 412.089 330.432 402.037 323.803 398.87C317.175 395.692 310.039 390.677 310.039 390.677L303.032 400.123L309.51 420.184L354.528 433.447Z" fill="#F4B11B"/>
<path d="M345.622 411.591L365.874 423.989C365.874 423.989 380.114 414.845 386.905 408.521C393.706 402.209 408.895 388.774 408.895 388.774L418.59 375.685C418.59 375.685 411.853 367.341 400.626 374.042C386.116 382.71 368.422 395.238 356.612 395.119C356.622 395.119 358.944 409.635 345.622 411.591Z" fill="#F4B11B"/>
<path d="M182.422 118.699C182.422 118.699 191.62 132.62 193.282 137.127C194.956 141.635 196.305 148.304 195.96 151.514C195.614 154.724 192.268 171.92 190.529 172.418L188.899 174.266L189.947 181.551C189.947 181.551 182.757 194.002 161.618 184.869C161.618 184.869 160.798 170.332 158.229 165.781C155.659 161.22 151.816 166.646 147.962 153.47C144.108 140.294 156.383 126.503 156.383 126.503L182.422 118.699Z" fill="white"/>
<path opacity="0.5" d="M409.845 371.621C409.845 371.621 399.438 373.426 396.059 379.597C392.68 385.769 386.192 397.248 383.979 402.793C381.766 408.338 363.445 421.729 363.445 421.729L365.874 423.988C365.874 423.988 380.772 414.769 389.765 406.003C398.747 397.237 418.59 375.187 418.59 375.187C418.59 375.187 417.176 373.761 409.845 371.621Z" fill="white"/>
<path opacity="0.5" d="M305.602 396.643L303.032 400.112L310.956 416.563L354.539 432.246L356.558 425.858C356.558 425.858 357.227 419.352 341.929 414.455C326.632 409.559 317.304 406.273 312.954 402.89C308.592 399.474 305.602 396.643 305.602 396.643Z" fill="white"/>
<path d="M161.727 274.451C161.727 274.451 148.383 272.441 142.154 283.379C135.925 294.307 136.562 299.041 136.562 299.041C136.562 299.041 145.371 307.061 157.495 306.65C169.618 306.239 187.291 292.253 193.045 287.724C198.799 283.195 213.309 270.236 223.208 272.916L224.299 263.545C224.299 263.545 223.338 259.341 214.863 260.476C206.389 261.611 203.074 266.442 200.354 266.442C197.633 266.442 195.042 263.816 189.526 273.197C189.515 273.187 170.266 276.613 161.727 274.451Z" fill="white"/>
<path d="M179.064 138.727C179.345 140.478 179.745 142.207 180.274 143.904C180.533 144.726 180.824 145.558 181.407 146.185C182.422 147.309 184.063 147.547 185.563 147.774C185.812 147.806 186.082 147.86 186.233 148.055C186.373 148.228 186.395 148.476 186.395 148.703C186.395 150.39 185.877 152.076 184.927 153.481" stroke="#263238" stroke-miterlimit="10" stroke-linecap="round" stroke-linejoin="round"/>
<path opacity="0.1" d="M314.551 385.467L305.591 396.632C305.591 396.632 315.415 405.722 325.595 409.084C335.765 412.456 353.567 418.833 356.547 423.719L355.402 417.85C355.402 417.85 327.571 400.75 321.169 396.665C314.767 392.59 314.551 385.467 314.551 385.467Z" fill="black"/>
<path opacity="0.1" d="M345.622 411.591L363.445 421.73C363.445 421.73 372.222 415.72 376.562 411.246C380.902 406.771 386.192 401.885 389.463 391.92C393.987 378.16 406.941 371.61 406.941 371.61C406.941 371.61 388.923 380.095 379.542 386.775C370.16 393.444 361.016 396.222 355.705 395.768C355.705 395.768 359.969 409.289 345.622 411.591Z" fill="black"/>
<path d="M172.781 155.924C172.781 155.924 179.788 161.425 187.064 159.361C187.064 159.361 180.198 172.98 172.781 155.924Z" fill="white" stroke="#263238" stroke-miterlimit="10" stroke-linecap="round" stroke-linejoin="round"/>
<path d="M172.565 144.034C172.771 145.547 172.317 146.855 171.551 146.963C170.784 147.061 170.007 145.926 169.802 144.402C169.597 142.888 170.05 141.581 170.817 141.473C171.583 141.375 172.36 142.521 172.565 144.034Z" fill="#263238"/>
<path d="M187.777 141.289C187.982 142.802 187.529 144.11 186.762 144.218C185.996 144.316 185.218 143.181 185.013 141.657C184.808 140.143 185.261 138.836 186.028 138.727C186.794 138.63 187.572 139.776 187.777 141.289Z" fill="#263238"/>
<path d="M171.454 137.614C171.454 137.614 167.373 135.506 164.458 140.024" stroke="#263238" stroke-miterlimit="10" stroke-linecap="round" stroke-linejoin="round"/>
<path d="M181.904 134.804C181.904 134.804 186.211 131.097 188.716 134.804" stroke="#263238" stroke-miterlimit="10" stroke-linecap="round" stroke-linejoin="round"/>
<path d="M157.581 151.525C157.581 151.525 154.958 147.645 152.205 147.763C149.452 147.893 148.329 151.773 149.333 155.524C150.337 159.285 154.461 164.538 157.592 164.041C160.723 163.544 162.094 161.534 162.094 161.534" stroke="#263238" stroke-miterlimit="10" stroke-linecap="round" stroke-linejoin="round"/>
<path d="M182.735 121.844C185.693 124.287 188.802 126.968 190.346 130.578C191.663 133.647 191.966 137.041 193.164 140.165C194.449 143.483 195.863 146.963 195.971 150.584C196.068 153.881 195.323 157.307 194.665 160.518C194.103 163.295 193.661 166.16 192.667 168.829C191.221 172.71 188.522 175.098 184.916 176.936C182.293 178.276 177.92 180.2 175.081 178.384C173.429 177.325 170.946 174.212 168.884 171.369" stroke="#263238" stroke-miterlimit="10" stroke-linecap="round" stroke-linejoin="round"/>
<path d="M157.581 164.052C157.581 164.052 162.223 175.444 161.1 183.464" stroke="#263238" stroke-miterlimit="10" stroke-linecap="round" stroke-linejoin="round"/>
<path d="M156.393 149.612C157.635 148.715 158.347 147.126 158.196 145.602C158.023 143.851 156.804 142.229 157.052 140.489C157.171 139.635 157.635 138.868 157.98 138.079C159.254 135.193 159.049 131.691 157.419 128.989C157.419 128.989 172.166 129.681 179.075 125.281C185.984 120.882 191.242 109.63 187.075 104.259C182.897 98.8759 174.757 106.215 168.733 107.026C162.709 107.836 141.225 111.263 137.803 119.574C134.381 127.886 139.595 130.826 139.757 138.727C139.919 146.628 139.908 161.598 151.719 160.226C151.719 160.226 147.303 154.508 150.369 148.617C152.442 146.099 156.393 149.612 156.393 149.612Z" fill="#263238"/>
<path d="M185.316 113.586C185.316 113.586 191.383 117.64 192.376 126.568C193.035 132.491 203.528 144.002 195.971 150.563C195.971 150.563 194.211 143.591 193.164 140.143C192.128 136.706 190.811 130.437 189.062 128.243C187.324 126.049 178.104 118.558 178.104 118.558L185.316 113.586Z" fill="#263238"/>
<path d="M158.941 183.215C158.941 183.215 166.218 188.004 179.734 188.209L181.31 206.357C181.31 206.357 166.12 205.2 154.806 194.781C154.806 194.781 151.751 186.685 152.561 183.205C153.371 179.724 160.604 176.276 160.604 176.276" stroke="#263238" stroke-miterlimit="10" stroke-linecap="round" stroke-linejoin="round"/>
<path d="M189.515 175.088L189.947 181.551C185.035 186.588 179.734 188.209 179.734 188.209L188.198 204.347C188.198 204.347 198.281 196.478 199.296 188.209C199.296 188.209 199.382 179.735 197.622 177.325C195.874 174.904 189.45 173.769 189.45 173.769" stroke="#263238" stroke-miterlimit="10" stroke-linecap="round" stroke-linejoin="round"/>
<path opacity="0.8" d="M148.556 124.935C149.646 122.222 152.593 120.655 155.476 120.169C158.358 119.682 161.316 120.039 164.231 119.963C168.236 119.855 172.285 118.893 175.675 116.742C179.064 114.591 181.742 111.197 182.584 107.274" stroke="white" stroke-miterlimit="10" stroke-linecap="round" stroke-linejoin="round"/>
<path opacity="0.8" d="M141.593 124.417C143.428 118.861 149.333 115.446 155.152 114.948C158.035 114.7 160.95 115.046 163.821 114.711C166.693 114.376 169.683 113.187 171.184 110.711" stroke="white" stroke-miterlimit="10" stroke-linecap="round" stroke-linejoin="round"/>
<path d="M138.527 300.598C124.514 307.883 119.505 300.392 111.688 294.188C103.872 287.984 108.989 276.927 107.381 259.114C105.762 241.312 109.81 211.091 109.81 211.091C109.81 211.091 113.308 210.281 123.013 204.336C132.718 198.391 153.144 189.333 153.144 189.333" stroke="#263238" stroke-miterlimit="10" stroke-linecap="round" stroke-linejoin="round"/>
<path d="M152.432 273.694C152.432 273.694 150.208 266.636 143.914 266.442C137.631 266.247 127.72 269.09 120.67 282.471" stroke="#263238" stroke-miterlimit="10" stroke-linecap="round" stroke-linejoin="round"/>
<path d="M142.488 266.02C142.1 266.031 141.722 265.88 141.355 265.75C136.216 263.891 130.505 263.632 125.226 265.015" stroke="#263238" stroke-miterlimit="10" stroke-linecap="round" stroke-linejoin="round"/>
<path d="M121.61 220.732C133.032 233.379 138.613 250.11 143.892 266.323" stroke="#263238" stroke-miterlimit="10" stroke-linecap="round" stroke-linejoin="round"/>
<path d="M199.296 186.512C199.296 186.512 220.024 191.463 230.15 192.641C240.277 193.819 241.918 195.235 241.918 195.235L243.796 202.304" stroke="#263238" stroke-miterlimit="10" stroke-linecap="round" stroke-linejoin="round"/>
<path d="M295.896 198.845L225.292 201.558L219.527 274.257H231.618L292.916 260.508L300.625 200.596L295.896 198.845Z" fill="white"/>
<path d="M223.198 276.408L300.409 202.304L292.917 260.508L223.198 276.408Z" fill="#F4B11B"/>
<path opacity="0.7" d="M223.198 276.408L300.409 202.304L292.917 260.508L223.198 276.408Z" fill="white"/>
<path d="M223.198 274.451L229.373 204.335L300.625 200.596L292.917 260.508L223.198 274.451Z" stroke="#263238" stroke-miterlimit="10" stroke-linecap="round" stroke-linejoin="round"/>
<path d="M270.591 234.557C270.105 238.826 267.827 242.069 265.506 241.809C263.174 241.55 261.684 237.875 262.16 233.605C262.645 229.336 264.923 226.094 267.244 226.353C269.576 226.612 271.077 230.287 270.591 234.557Z" fill="#263238"/>
<path d="M292.917 260.508C292.917 260.508 325.541 259.579 335.743 266.323C345.945 273.068 351.926 306.888 350.523 324.852C349.119 342.816 336.801 384.04 336.801 384.04L313.223 357.267C313.223 357.267 301.607 314.995 307.944 298.436C307.944 298.436 276.626 300.198 264.308 296.317C264.308 296.317 253.264 278.213 234.328 272.225L292.917 260.508Z" fill="#263238"/>
<path d="M341.778 384.742C331.814 375.706 322.205 363.276 319.345 358.856C307.933 341.205 292.161 324.225 275.935 311.049C262.85 300.424 259.892 283.13 243.764 274.462C217.055 260.119 193.952 288.621 185.315 294.393C176.679 300.154 161.716 306.661 161.716 306.661C161.716 306.661 167.168 327.154 183.21 329.629C199.253 332.104 215.489 320.982 223.198 326.343C230.917 331.683 236.552 355.581 261.9 369.578C282.617 381.013 310.848 392.179 325.412 399.691C328.672 401.377 331.069 403.15 332.904 404.155C337.935 406.9 343.311 410.143 348.385 413.331L365.863 423.989C365.863 423.989 383.407 413.602 390.143 404.025C391.05 402.739 392.907 399.312 394.656 396.005C398.477 388.785 403.271 382.3 409.975 378.69C414.595 376.204 418.719 375.436 418.579 375.188C418.136 374.366 409.759 370.075 404.07 372.421C392.022 377.393 367.947 396.545 356.611 395.13C356.622 395.119 348.364 390.709 341.778 384.742Z" stroke="#263238" stroke-miterlimit="10"/>
<path d="M341.778 384.743C331.274 388.991 327.042 395.541 325.422 399.68C310.859 392.168 282.628 381.003 261.911 369.567C236.563 355.559 230.927 331.672 223.208 326.333C215.489 320.972 199.253 332.094 183.221 329.619C167.178 327.143 161.737 306.639 161.737 306.639C161.737 306.639 176.7 300.143 185.337 294.382C193.973 288.621 213.892 260.097 243.785 274.451C260.302 282.374 262.872 300.425 275.956 311.039C292.182 324.214 307.955 341.195 319.366 358.845C322.205 363.277 331.781 375.739 341.778 384.743Z" fill="#263238"/>
<path d="M262.84 293.118C262.84 293.118 254.754 276.667 241.788 273.479" stroke="white" stroke-miterlimit="10" stroke-linecap="round" stroke-linejoin="round"/>
<path d="M220.455 260.357C211.538 258.411 201.746 268.28 197.622 266.431C194.556 265.059 189.515 273.187 189.515 273.187C189.515 273.187 176.463 275.208 164.447 274.451C152.431 273.695 146.742 276.029 142.488 282.471L136.551 298.209C136.551 298.209 152.205 312.282 168.938 304.078C185.671 295.885 207.889 271.22 223.197 271.306" stroke="#263238" stroke-miterlimit="10" stroke-linecap="round" stroke-linejoin="round"/>
<path d="M344.941 411.17C344.941 411.17 359.591 412.38 356.147 394.859" stroke="#263238" stroke-miterlimit="10"/>
<path d="M413.926 384.04C412.814 386.245 399.417 397.637 387.854 407.635C387.887 407.484 391.05 401.377 392.443 398.772C395.509 393.022 403.454 377.252 418.59 375.177C420.738 376.474 413.926 384.04 413.926 384.04Z" fill="#263238"/>
<path d="M408.172 371.729C392.875 374.788 389.409 394.406 383.968 402.793C378.538 411.181 363.435 422.508 363.435 422.508" stroke="#263238" stroke-miterlimit="10"/>
<path d="M355.208 417.482C357.691 422.054 356.514 427.339 355.208 430.657C354.107 433.446 352.811 435.381 352.811 435.381C331.155 431.814 309.499 420.173 309.499 420.173L303.917 402.879L303.032 400.112L311.442 388.785" stroke="#263238" stroke-miterlimit="10"/>
<path d="M355.208 430.657C354.107 433.446 352.811 435.381 352.811 435.381C331.155 431.814 309.499 420.173 309.499 420.173L303.917 402.879C306.714 406.533 311.896 411.883 319.668 414.088C330.216 417.06 349.681 420.562 355.208 430.657Z" fill="#263238"/>
<path d="M219.527 271.728L225.292 201.558L295.896 198.845L300.625 200.596" stroke="#263238" stroke-miterlimit="10" stroke-linecap="round" stroke-linejoin="round"/>
<path d="M355.996 402.793C355.996 402.793 365.648 404.512 373.064 398.459C380.481 392.406 392.432 378.711 392.432 378.711" stroke="#263238" stroke-miterlimit="10"/>
<path d="M365.874 394.049C365.874 394.049 363.542 397.562 365.874 404.62" stroke="#263238" stroke-miterlimit="10" stroke-linecap="round" stroke-linejoin="round"/>
<path d="M372.719 390.709C372.719 390.709 370.851 395.962 373.593 401.28" stroke="#263238" stroke-miterlimit="10" stroke-linecap="round" stroke-linejoin="round"/>
<path d="M380.869 385.975C380.869 385.975 378.915 391.844 380.869 397.021" stroke="#263238" stroke-miterlimit="10" stroke-linecap="round" stroke-linejoin="round"/>
<path d="M313.342 387.304L305.591 396.632C305.591 396.632 313.396 405.16 324.386 408.694C335.376 412.24 355.046 418.26 356.665 424.67" stroke="#263238" stroke-miterlimit="10"/>
</svg>
